<svg width="755" height="520" viewBox="0 0 755 520" fill="none" xmlns="http://www.w3.org/2000/svg">
<g opacity="0.31">
<g opacity="0.31">
<path opacity="0.31" d="M37.913 519.997C-11.6273 410.589 18.9013 324.699 58.7104 307.319C158.128 263.916 228.546 370.577 360.825 334.166C437.907 312.948 448.44 246.208 521.902 241.169C584.775 236.857 645.456 253.415 679.697 271.358C759.66 313.261 765.492 437.415 679.264 517.314C465.48 518.209 251.697 519.103 37.913 519.997Z" fill="#D4D4FC"/>
</g>
</g>
<g opacity="0.14">
<g opacity="0.14">
<path opacity="0.14" d="M351.035 445.676C351.035 445.676 349.083 417.581 324.948 411.354C300.813 405.127 309.377 341.301 309.377 341.301C309.377 341.301 306.652 382.165 333.122 392.284C359.593 402.403 370.882 430.035 371.271 443.267L351.035 445.676Z" fill="#FFB0B0"/>
</g>
<g opacity="0.14">
<path opacity="0.14" d="M361.121 449.494C361.121 449.494 360.343 411.354 343.604 387.614C326.865 363.874 346.329 338.966 346.329 338.966C346.329 338.966 341.268 366.987 358.786 383.333C376.303 399.678 376.692 449.494 376.692 449.494H361.121Z" fill="#FF9F9F"/>
</g>
<g opacity="0.14">
<path opacity="0.14" d="M367.366 440.932C367.366 440.932 372.816 389.171 392.28 382.165C411.743 375.16 421.475 356.09 421.475 356.09C421.475 356.09 414.079 374.771 396.951 396.176C379.823 417.581 389.944 445.603 389.944 445.603L367.366 440.932Z" fill="#FF8080"/>
</g>
<g opacity="0.14">
<path opacity="0.14" d="M379.118 445.603C379.118 445.603 387.292 410.577 404.031 407.463C420.77 404.35 426.22 389.561 426.22 389.561C426.22 389.561 422.327 410.966 413.374 415.247C404.421 419.528 392.072 420.448 389.488 443.923L379.118 445.603Z" fill="#03DAC5"/>
</g>
<g opacity="0.14">
<path opacity="0.14" d="M370.482 436.678C370.482 436.678 356.565 384.89 369.022 370.101C381.479 355.312 375.251 343.247 375.251 343.247C375.251 343.247 384.593 360.76 379.143 381.387C373.693 402.014 380.85 440.154 380.85 440.154L370.482 436.678Z" fill="#FF9292"/>
</g>
<g opacity="0.14">
<path opacity="0.14" d="M393.066 436.418L388.753 510.73L388.513 514.885H354.756L352.165 484.363L348.093 436.418H393.066Z" fill="#6200EE"/>
</g>
<g opacity="0.14">
<path opacity="0.14" d="M345.55 432.196H397.451V443.586H345.55V432.196Z" fill="#564AAF"/>
</g>
<g opacity="0.76">
<g opacity="0.76">
<path opacity="0.76" d="M348.798 443.585L392.253 452.072L392.745 443.585H348.798Z" fill="#223040"/>
</g>
</g>
<g opacity="0.1">
<g opacity="0.1">
<path opacity="0.1" d="M388.677 510.729L388.436 514.885H354.679L352.088 484.363C354.759 492.956 358.996 500.393 365.65 503.916C373.954 508.312 381.697 509.881 388.677 510.729Z" fill="#223040"/>
</g>
</g>
</g>
<path d="M420.25 165.249L425.144 159.909L426.715 152.057C426.715 152.057 429.856 142.636 432.997 142.636C436.139 142.636 445.562 145.776 439.28 156.768C437.709 158.339 434.568 161.479 434.568 161.479L431.427 170.901L420.25 165.249Z" fill="#F9DDC5"/>
<path d="M432.21 170.909C432.21 170.909 431.392 173.187 429.971 176.913C424.294 191.728 408.953 229.331 397.117 235.235C387.272 240.153 368.955 229.901 357.796 222.49C357.347 222.195 356.911 221.9 356.489 221.612C351.596 218.295 348.372 215.743 348.372 215.743L340.672 159.927L340.571 159.21L354.632 172.731L388.632 205.43L415.756 170.359L420.085 164.751L432.21 170.909Z" fill="#03DAC5"/>
<g opacity="0.33">
<g opacity="0.33">
<path opacity="0.33" d="M356.486 221.629L353.051 198.019L352.558 218.89L356.486 221.629Z" fill="#223040"/>
</g>
</g>
<path d="M432.305 171.201C432.305 171.201 431.518 173.342 430.144 176.833L415.639 170.072L419.918 164.888L432.305 171.201Z" fill="#EE5353"/>
<path d="M277.268 498.078V477.045L293.799 477.796L291.169 501.083L277.268 498.078Z" fill="#F9DDC5"/>
<path d="M316.827 517.218L273.35 516.284L273.41 513.48C273.519 513.019 273.613 512.558 273.721 512.083C275.172 505.269 276.577 496.714 276.577 496.714C276.577 496.714 283.589 496.865 289.199 496.985C290.531 497.014 291.757 497.433 292.88 498.06C296.499 500.06 298.866 504.207 298.866 504.207C299.174 504.213 299.483 504.22 299.791 504.241C311.946 504.712 315.62 509.392 316.623 513.005C317.288 515.334 316.827 517.218 316.827 517.218Z" fill="#25197C"/>
<path d="M316.827 517.218L273.35 516.284L273.41 513.48C273.519 513.019 273.613 512.558 273.721 512.083L316.623 513.005C317.288 515.334 316.827 517.218 316.827 517.218Z" fill="#1A1466"/>
<g opacity="0.25">
<g opacity="0.25">
<path opacity="0.25" d="M299.792 504.238C297.571 505.748 294.116 507.848 293.196 506.888C291.893 505.528 294.417 502.987 294.675 502.726C294.463 502.819 291.799 503.996 290.482 502.621C289.713 501.819 291.19 499.719 292.881 498.058C296.5 500.057 298.867 504.204 298.867 504.204C299.175 504.211 299.484 504.218 299.792 504.238Z" fill="white"/>
</g>
</g>
<path d="M359.856 499.517L356.983 481.467L375.467 475.52L375.723 496.553L359.856 499.517Z" fill="#F9DDC5"/>
<path d="M404.734 508.532L362.261 517.866L361.659 515.126C361.655 514.653 361.638 514.183 361.631 513.696C361.436 506.731 360.785 498.086 360.785 498.086C360.785 498.086 367.635 496.581 373.116 495.377C374.417 495.09 375.707 495.209 376.946 495.554C380.935 496.645 384.212 500.118 384.212 500.118C384.513 500.052 384.815 499.985 385.119 499.933C397.043 497.528 401.717 501.211 403.543 504.485C404.738 506.592 404.734 508.532 404.734 508.532Z" fill="#25197C"/>
<path d="M404.609 508.607L362.105 517.798L361.512 515.056C361.51 514.583 361.495 514.113 361.49 513.626L403.432 504.557C404.62 506.667 404.609 508.607 404.609 508.607Z" fill="#1A1466"/>
<g opacity="0.25">
<g opacity="0.25">
<path opacity="0.25" d="M385.164 499.945C383.354 501.929 380.482 504.774 379.365 504.054C377.781 503.034 379.645 499.976 379.836 499.662C379.651 499.803 377.334 501.566 375.733 500.535C374.799 499.934 375.747 497.548 377.006 495.539C380.991 496.643 384.256 500.127 384.256 500.127C384.558 500.062 384.86 499.996 385.164 499.945Z" fill="white"/>
</g>
</g>
<path d="M379.234 481.397L351.63 483.692C351.63 483.692 294.81 274.759 303.779 256.453L354.18 257.654L379.234 481.397Z" fill="#25197C"/>
<path d="M299.405 484.776L273.115 484.577C273.115 484.577 284.806 306.292 285.235 273.571C285.306 268.263 284.501 270.208 284.991 266.251C285.165 264.843 285.368 263.538 285.603 262.333L304.627 248.82L343.201 270.996L299.405 484.776Z" fill="#25197C"/>
<path d="M284.523 275.461C285.289 276.447 286.307 277.314 287.667 277.763C287.929 277.849 288.197 277.908 288.465 277.962L302.459 280.687C315.211 283.046 334.702 285.327 353.044 279.494C355.355 278.759 356.803 276.467 356.45 274.067C355.334 266.49 353.025 249.356 352.335 233.087C352.287 232.032 352.25 230.983 352.223 229.944C352.207 229.393 352.191 228.841 352.18 228.295C352.025 221.083 352.887 214.304 353.578 207.654C353.765 205.823 353.942 204.002 354.081 202.182C355.051 189.615 354.21 177.22 343.397 162.897C337.051 156.06 334.121 155.085 334.121 155.085L318.011 154.598C318.011 154.598 297.81 155.883 293.296 179.019C293.001 180.545 292.771 182.162 292.621 183.881C290.698 205.791 287.871 239.202 284.845 258.37C284.245 262.188 283.634 265.443 283.024 267.928C282.381 270.535 282.879 273.336 284.523 275.461Z" fill="#03DAC5"/>
<g opacity="0.33">
<g opacity="0.33">
<path opacity="0.33" d="M310.554 213.902L306.689 225.922L336.746 223.346L296.384 232.361" fill="#223040"/>
</g>
</g>
<g opacity="0.33">
<g opacity="0.33">
<path opacity="0.33" d="M343.526 237.937L284.162 262.473L285.516 253.912L343.526 237.937Z" fill="#223040"/>
</g>
</g>
<path d="M336.818 283.296L335.98 283.066C336.012 282.949 339.163 271.077 339.904 235.525C340.646 199.92 335.453 166.077 335.401 165.739L336.259 165.606C336.311 165.944 341.516 199.86 340.772 235.543C340.028 271.241 336.85 283.179 336.818 283.296Z" fill="white"/>
<g opacity="0.17">
<g opacity="0.17">
<path opacity="0.17" d="M374.647 488.108L358.435 485.303L373.972 482.607L374.647 488.108Z" fill="#223040"/>
</g>
</g>
<g opacity="0.17">
<g opacity="0.17">
<path opacity="0.17" d="M292.487 490.088L277.346 484.553H293.112L292.487 490.088Z" fill="#223040"/>
</g>
</g>
<path d="M315.892 131.232L317.825 154.6C317.825 154.6 317.538 159.42 321.645 161.89L325.482 164.198C328.558 166.049 332.319 166.37 335.664 165.068C338.861 163.824 339.79 159.747 337.448 157.242L336.829 154.094L333.919 139.202L333.127 135.161L315.892 131.232Z" fill="#F9DDC5"/>
<g opacity="0.2">
<g opacity="0.2">
<path opacity="0.2" d="M321.178 140.273C326.26 149.756 334.637 153.264 336.971 154.091L334.062 139.199C328.779 136.671 316.462 131.458 321.178 140.273Z" fill="#223040"/>
</g>
</g>
<path d="M350.892 121.637C350.919 122.259 350.961 122.881 351.024 123.5C352.713 139.943 344.664 149.887 337.279 149.638C324.698 149.213 311.827 130.427 311.827 130.427C307.688 127.994 304.986 108.022 320.369 102.424C335.476 96.9261 350.136 104.689 350.892 121.637Z" fill="#F9DDC5"/>
<path d="M316.194 154.4L335.6 166.171L332.912 170.534L316.738 157.988L316.194 154.4Z" fill="white"/>
<path d="M337.274 157.028L339.153 158.906L341.031 167.671L335.587 165.198L337.274 157.028Z" fill="white"/>
<path d="M320.125 126.264C320.125 126.264 323.183 112.708 323.183 112.705C323.196 112.651 334.926 112.468 335.943 112.379C344.135 111.658 348.809 111.808 355.619 106.855C363.084 101.426 359.458 94.5751 356.757 89.2284C354.913 85.5802 350.198 87.9732 347.363 88.7555C341.324 90.4223 334.997 89.4771 328.835 90.0353C325.005 90.3822 321.215 91.6491 317.937 93.6345C313.244 96.4775 309.267 101.727 309.555 107.418C309.566 107.64 309.962 109.346 309.844 109.474C309.844 109.474 301.679 118.354 310.83 126.196C310.83 126.196 316.341 120.767 320.125 126.264Z" fill="#1E1147"/>
<path d="M308.371 125.667C308.371 129.505 311.483 132.616 315.321 132.616C319.16 132.616 322.271 129.505 322.271 125.667C322.271 121.83 319.16 118.719 315.321 118.719C311.483 118.719 308.371 121.83 308.371 125.667Z" fill="#F9DDC5"/>
<path d="M338.221 225.849L344.54 223.389L357.179 218.47L369.632 223.137C369.632 223.137 378.226 236.581 377.821 238.417C377.417 240.254 370.878 236.584 367.297 230.172C367.297 230.172 366.801 235.991 360.886 236.614C354.971 237.238 346.192 233.38 346.192 233.38L339.872 235.839L338.221 225.849Z" fill="#F9DDC5"/>
<g opacity="0.2">
<g opacity="0.2">
<path opacity="0.2" d="M343.47 237.974C343.455 237.974 343.429 237.974 343.392 237.974C343.433 237.974 343.455 237.974 343.47 237.974Z" fill="#223040"/>
</g>
</g>
<path d="M343.487 238.169C340.976 239.315 338.551 240.398 336.196 241.396C300.358 256.859 283.117 257.191 277.184 249.175C270.856 240.624 273.358 223.887 285.525 193.384C292.96 174.744 299.741 165.236 303.89 160.66C306.13 158.189 310.032 158.212 312.25 160.703C323.476 173.31 323.562 193.365 323.562 193.365L303.12 228.335L332.834 222.166L340.408 220.598L343.487 238.169Z" fill="#03DAC5"/>
<path d="M342.891 237.403C340.149 238.847 337.504 240.218 334.941 241.496L333.696 222.861L341.748 220.376L342.891 237.403Z" fill="#EE5353"/>
<g opacity="0.21">
<g opacity="0.21">
<path opacity="0.21" d="M323.648 367.649L334.16 316.011L328.858 390.218L323.648 367.649Z" fill="black"/>
</g>
</g>
<g opacity="0.15">
<g opacity="0.15">
<path opacity="0.15" d="M306.253 65.9248C306.253 81.6828 293.475 94.4571 277.714 94.4571C261.952 94.4571 249.175 81.6828 249.175 65.9248C249.175 50.1668 261.952 37.3925 277.714 37.3925C293.475 37.3925 306.253 50.1668 306.253 65.9248Z" fill="black"/>
</g>
</g>
<g opacity="0.15">
<g opacity="0.15">
<path opacity="0.15" d="M421.425 60.2606C421.425 74.9855 409.485 86.9224 394.757 86.9224C380.029 86.9224 368.089 74.9855 368.089 60.2606C368.089 45.5356 380.029 33.5987 394.757 33.5987C409.485 33.5987 421.425 45.5356 421.425 60.2606Z" fill="black"/>
</g>
</g>
<path d="M65.9653 125.026H232.218V514.828H65.9653V125.026Z" fill="#C0C0FF"/>
<path d="M88.0758 125.027H260.658V516.095H88.0758V125.027Z" fill="#D7D7F9"/>
<path d="M97.9819 139.368H250.552V503.436H97.9819V139.368Z" fill="white"/>
<g opacity="0.4">
<g opacity="0.4">
<path opacity="0.4" d="M216.521 378.567H173.126C170.194 378.567 167.818 376.191 167.818 373.26V328.609C167.818 325.678 170.194 323.303 173.126 323.303H216.521C219.452 323.303 221.829 325.678 221.829 328.609V373.26C221.829 376.191 219.452 378.567 216.521 378.567Z" fill="#6200EE"/>
</g>
</g>
<g opacity="0.42">
<g opacity="0.42">
<path opacity="0.42" d="M185.318 359.529C185.13 359.537 184.686 359.316 183.986 358.868C183.286 358.421 182.511 357.875 181.66 357.232C180.809 356.589 179.966 355.908 179.131 355.189C178.295 354.47 177.652 353.836 177.2 353.287C177.042 353.083 176.971 352.777 176.986 352.367C177.001 351.957 177.054 351.661 177.144 351.481C177.242 351.27 177.68 350.821 178.459 350.132C179.238 349.443 180.098 348.731 181.039 347.993C181.98 347.256 182.872 346.597 183.715 346.018C184.558 345.438 185.092 345.148 185.318 345.148C185.589 345.081 186.086 345.498 186.809 346.401C187.531 347.304 187.919 347.993 187.971 348.467C187.994 348.693 187.599 349.191 186.786 349.963C185.973 350.734 185.077 351.526 184.099 352.339C185.077 353.159 185.973 353.953 186.786 354.72C187.599 355.488 187.994 355.981 187.971 356.199C187.919 356.681 187.531 357.373 186.809 358.276C186.086 359.179 185.589 359.597 185.318 359.529Z" fill="white"/>
</g>
<g opacity="0.42">
<path opacity="0.42" d="M192.136 361.144C191.865 361.212 191.298 361.064 190.437 360.699C189.575 360.334 188.952 359.94 188.568 359.519C188.38 359.316 188.585 358.505 189.183 357.086C189.782 355.668 190.512 354.097 191.374 352.374C192.236 350.651 193.097 349.01 193.959 347.452C194.821 345.895 195.417 344.875 195.749 344.394C195.982 344.078 196.36 343.957 196.883 344.032C197.406 344.108 197.922 344.281 198.43 344.552C198.938 344.822 199.363 345.146 199.706 345.522C200.049 345.899 200.163 346.226 200.05 346.504C199.621 347.558 199.017 348.89 198.238 350.5C197.459 352.111 196.661 353.683 195.845 355.218C195.028 356.753 194.27 358.095 193.57 359.242C192.87 360.39 192.392 361.024 192.136 361.144Z" fill="white"/>
</g>
<g opacity="0.42">
<path opacity="0.42" d="M203.612 359.529C203.333 359.597 202.832 359.179 202.11 358.276C201.387 357.373 201.003 356.681 200.958 356.199C200.943 355.981 201.338 355.488 202.144 354.72C202.949 353.953 203.845 353.159 204.831 352.339C203.845 351.526 202.949 350.734 202.144 349.963C201.338 349.191 200.943 348.693 200.958 348.467C201.003 347.993 201.387 347.304 202.11 346.401C202.832 345.498 203.333 345.081 203.612 345.148C203.83 345.148 204.36 345.438 205.203 346.018C206.046 346.597 206.938 347.256 207.879 347.993C208.82 348.731 209.68 349.443 210.459 350.132C211.238 350.821 211.68 351.27 211.786 351.481C211.868 351.661 211.921 351.957 211.944 352.367C211.966 352.777 211.895 353.083 211.729 353.287C211.27 353.836 210.623 354.47 209.787 355.189C208.952 355.908 208.109 356.589 207.258 357.232C206.408 357.875 205.632 358.421 204.932 358.868C204.232 359.316 203.792 359.537 203.612 359.529Z" fill="white"/>
</g>
</g>
<g opacity="0.38">
<g opacity="0.38">
<path opacity="0.38" d="M231.564 241.879H188.168C185.237 241.879 182.86 239.503 182.86 236.572V191.921C182.86 188.99 185.237 186.615 188.168 186.615H231.564C234.495 186.615 236.871 188.99 236.871 191.921V236.572C236.871 239.503 234.495 241.879 231.564 241.879Z" fill="#6200EE"/>
</g>
</g>
<g opacity="0.42">
<g opacity="0.42">
<path opacity="0.42" d="M200.596 222.841C200.408 222.849 199.964 222.629 199.264 222.181C198.564 221.733 197.789 221.188 196.938 220.544C196.087 219.901 195.245 219.22 194.409 218.501C193.574 217.783 192.93 217.149 192.478 216.599C192.32 216.396 192.249 216.089 192.264 215.679C192.279 215.269 192.332 214.974 192.422 214.793C192.52 214.583 192.958 214.133 193.737 213.444C194.516 212.756 195.376 212.043 196.317 211.305C197.258 210.568 198.15 209.909 198.993 209.33C199.836 208.75 200.37 208.461 200.596 208.461C200.867 208.393 201.364 208.811 202.087 209.714C202.809 210.617 203.197 211.305 203.249 211.779C203.272 212.005 202.877 212.503 202.064 213.275C201.251 214.046 200.355 214.838 199.377 215.651C200.355 216.471 201.251 217.265 202.064 218.033C202.877 218.8 203.272 219.293 203.249 219.511C203.197 219.993 202.809 220.685 202.087 221.588C201.364 222.491 200.867 222.909 200.596 222.841Z" fill="white"/>
</g>
<g opacity="0.42">
<path opacity="0.42" d="M207.414 224.457C207.143 224.525 206.576 224.376 205.714 224.011C204.852 223.646 204.23 223.253 203.846 222.831C203.658 222.628 203.863 221.818 204.461 220.399C205.06 218.98 205.79 217.409 206.651 215.686C207.513 213.963 208.375 212.322 209.237 210.764C210.099 209.207 210.695 208.187 211.026 207.706C211.26 207.39 211.638 207.269 212.161 207.344C212.684 207.42 213.2 207.593 213.708 207.864C214.216 208.134 214.641 208.458 214.984 208.834C215.326 209.211 215.441 209.538 215.328 209.817C214.899 210.87 214.295 212.202 213.516 213.812C212.737 215.423 211.939 216.995 211.122 218.531C210.306 220.066 209.547 221.407 208.847 222.554C208.147 223.702 207.669 224.336 207.414 224.457Z" fill="white"/>
</g>
<g opacity="0.42">
<path opacity="0.42" d="M218.889 222.841C218.61 222.909 218.109 222.491 217.387 221.588C216.664 220.685 216.28 219.993 216.235 219.511C216.22 219.293 216.615 218.8 217.421 218.033C218.226 217.265 219.122 216.471 220.108 215.651C219.122 214.838 218.226 214.046 217.421 213.275C216.615 212.503 216.22 212.005 216.235 211.779C216.28 211.305 216.664 210.617 217.387 209.714C218.109 208.811 218.61 208.393 218.889 208.461C219.107 208.461 219.637 208.75 220.48 209.33C221.323 209.909 222.215 210.568 223.156 211.305C224.097 212.043 224.957 212.756 225.736 213.444C226.515 214.133 226.957 214.583 227.063 214.793C227.145 214.974 227.198 215.269 227.221 215.679C227.243 216.089 227.172 216.396 227.006 216.599C226.547 217.149 225.9 217.783 225.064 218.501C224.229 219.22 223.386 219.901 222.535 220.544C221.685 221.188 220.909 221.733 220.209 222.181C219.509 222.629 219.069 222.849 218.889 222.841Z" fill="white"/>
</g>
</g>
<g opacity="0.33">
<g opacity="0.33">
<path opacity="0.33" d="M161.287 503.439H117.891C114.96 503.439 112.583 501.063 112.583 498.132V453.481C112.583 450.55 114.96 448.174 117.891 448.174H161.287C164.218 448.174 166.594 450.55 166.594 453.481V498.132C166.594 501.063 164.218 503.439 161.287 503.439Z" fill="#6200EE"/>
</g>
</g>
<g opacity="0.42">
<g opacity="0.42">
<path opacity="0.42" d="M130.085 484.394C129.896 484.402 129.452 484.182 128.752 483.734C128.052 483.286 127.277 482.741 126.426 482.097C125.576 481.454 124.733 480.773 123.897 480.054C123.062 479.335 122.418 478.702 121.967 478.152C121.809 477.949 121.737 477.642 121.752 477.232C121.767 476.822 121.82 476.527 121.91 476.346C122.008 476.136 122.447 475.686 123.226 474.997C124.005 474.308 124.864 473.596 125.805 472.858C126.746 472.121 127.638 471.462 128.481 470.883C129.324 470.303 129.859 470.014 130.085 470.014C130.355 469.946 130.852 470.363 131.575 471.266C132.297 472.169 132.685 472.858 132.738 473.332C132.76 473.558 132.365 474.056 131.552 474.828C130.739 475.599 129.844 476.391 128.865 477.204C129.844 478.024 130.739 478.818 131.552 479.586C132.365 480.353 132.76 480.846 132.738 481.064C132.685 481.546 132.297 482.238 131.575 483.141C130.852 484.044 130.355 484.462 130.085 484.394Z" fill="white"/>
</g>
<g opacity="0.42">
<path opacity="0.42" d="M136.903 486.009C136.632 486.077 136.065 485.929 135.203 485.564C134.341 485.199 133.719 484.806 133.335 484.384C133.147 484.181 133.352 483.37 133.95 481.952C134.549 480.533 135.279 478.962 136.14 477.239C137.002 475.516 137.864 473.875 138.726 472.317C139.588 470.76 140.184 469.74 140.515 469.258C140.749 468.942 141.127 468.822 141.65 468.897C142.173 468.973 142.689 469.146 143.197 469.417C143.705 469.687 144.13 470.011 144.473 470.387C144.815 470.764 144.93 471.091 144.817 471.369C144.388 472.423 143.784 473.755 143.005 475.365C142.226 476.976 141.428 478.548 140.611 480.084C139.795 481.619 139.036 482.96 138.336 484.107C137.636 485.255 137.158 485.889 136.903 486.009Z" fill="white"/>
</g>
<g opacity="0.42">
<path opacity="0.42" d="M148.378 484.394C148.1 484.462 147.599 484.044 146.877 483.141C146.154 482.238 145.77 481.546 145.725 481.064C145.71 480.846 146.105 480.353 146.911 479.586C147.716 478.818 148.611 478.024 149.598 477.204C148.611 476.391 147.716 475.599 146.911 474.828C146.105 474.056 145.71 473.558 145.725 473.332C145.77 472.858 146.154 472.169 146.877 471.266C147.599 470.363 148.1 469.946 148.378 470.014C148.597 470.014 149.127 470.303 149.97 470.883C150.813 471.462 151.705 472.121 152.646 472.858C153.587 473.596 154.447 474.308 155.226 474.997C156.005 475.686 156.447 476.136 156.552 476.346C156.635 476.527 156.688 476.822 156.71 477.232C156.733 477.642 156.661 477.949 156.496 478.152C156.037 478.702 155.39 479.335 154.554 480.054C153.719 480.773 152.876 481.454 152.025 482.097C151.175 482.741 150.399 483.286 149.699 483.734C148.999 484.182 148.559 484.402 148.378 484.394Z" fill="white"/>
</g>
</g>
<g opacity="0.33">
<g opacity="0.33">
<path opacity="0.33" d="M222.867 503.439H179.472C176.54 503.439 174.164 501.063 174.164 498.132V453.481C174.164 450.55 176.54 448.174 179.472 448.174H222.867C225.799 448.174 228.175 450.55 228.175 453.481V498.132C228.175 501.063 225.799 503.439 222.867 503.439Z" fill="#03DAC5"/>
</g>
</g>
<g opacity="0.42">
<g opacity="0.42">
<path opacity="0.42" d="M191.665 484.394C191.476 484.402 191.032 484.182 190.332 483.734C189.632 483.286 188.857 482.741 188.006 482.097C187.156 481.454 186.313 480.773 185.477 480.054C184.642 479.335 183.998 478.702 183.547 478.152C183.389 477.949 183.317 477.642 183.332 477.232C183.347 476.822 183.4 476.527 183.49 476.346C183.588 476.136 184.027 475.686 184.806 474.997C185.585 474.308 186.445 473.596 187.386 472.858C188.326 472.121 189.218 471.462 190.061 470.883C190.904 470.303 191.439 470.014 191.665 470.014C191.936 469.946 192.432 470.363 193.155 471.266C193.877 472.169 194.265 472.858 194.318 473.332C194.34 473.558 193.945 474.056 193.132 474.828C192.319 475.599 191.424 476.391 190.445 477.204C191.424 478.024 192.319 478.818 193.132 479.586C193.945 480.353 194.34 480.846 194.318 481.064C194.265 481.546 193.877 482.238 193.155 483.141C192.432 484.044 191.936 484.462 191.665 484.394Z" fill="white"/>
</g>
<g opacity="0.42">
<path opacity="0.42" d="M198.482 486.009C198.211 486.077 197.645 485.929 196.783 485.564C195.921 485.199 195.299 484.806 194.915 484.384C194.727 484.181 194.932 483.37 195.53 481.952C196.128 480.533 196.858 478.962 197.72 477.239C198.582 475.516 199.444 473.875 200.306 472.317C201.168 470.76 201.764 469.74 202.095 469.258C202.328 468.942 202.707 468.822 203.23 468.897C203.753 468.973 204.269 469.146 204.777 469.417C205.285 469.687 205.71 470.011 206.053 470.387C206.395 470.764 206.51 471.091 206.397 471.369C205.968 472.423 205.364 473.755 204.585 475.365C203.806 476.976 203.008 478.548 202.191 480.084C201.375 481.619 200.616 482.96 199.916 484.107C199.216 485.255 198.738 485.889 198.482 486.009Z" fill="white"/>
</g>
<g opacity="0.42">
<path opacity="0.42" d="M209.957 484.394C209.679 484.462 209.178 484.044 208.456 483.141C207.733 482.238 207.349 481.546 207.304 481.064C207.289 480.846 207.684 480.353 208.49 479.586C209.295 478.818 210.191 478.024 211.177 477.204C210.191 476.391 209.295 475.599 208.49 474.828C207.684 474.056 207.289 473.558 207.304 473.332C207.349 472.858 207.733 472.169 208.456 471.266C209.178 470.363 209.679 469.946 209.957 470.014C210.176 470.014 210.706 470.303 211.549 470.883C212.392 471.462 213.284 472.121 214.225 472.858C215.166 473.596 216.026 474.308 216.805 474.997C217.584 475.686 218.026 476.136 218.132 476.346C218.214 476.527 218.267 476.822 218.29 477.232C218.312 477.642 218.241 477.949 218.075 478.152C217.616 478.702 216.969 479.335 216.133 480.054C215.298 480.773 214.455 481.454 213.604 482.097C212.754 482.741 211.978 483.286 211.278 483.734C210.578 484.182 210.138 484.402 209.957 484.394Z" fill="white"/>
</g>
</g>
<path d="M95.6182 378.987H258.073V390.799H95.6182V378.987Z" fill="#D7D7F9"/>
<path d="M95.6182 241.88H258.073V253.692H95.6182V241.88Z" fill="#D7D7F9"/>
<g opacity="0.36">
<g opacity="0.36">
<path opacity="0.36" d="M167.868 241.879H124.472C121.541 241.879 119.165 239.503 119.165 236.572V191.921C119.165 188.99 121.541 186.615 124.472 186.615H167.868C170.799 186.615 173.176 188.99 173.176 191.921V236.572C173.176 239.503 170.799 241.879 167.868 241.879Z" fill="#03DAC5"/>
</g>
</g>
<g opacity="0.42">
<g opacity="0.42">
<path opacity="0.42" d="M136.9 222.841C136.712 222.849 136.268 222.629 135.568 222.181C134.868 221.733 134.093 221.188 133.242 220.544C132.392 219.901 131.549 219.22 130.713 218.501C129.878 217.783 129.234 217.149 128.783 216.599C128.625 216.396 128.553 216.089 128.568 215.679C128.583 215.269 128.636 214.974 128.726 214.793C128.824 214.583 129.262 214.133 130.041 213.444C130.821 212.756 131.68 212.043 132.621 211.305C133.562 210.568 134.454 209.909 135.297 209.33C136.14 208.75 136.675 208.461 136.9 208.461C137.171 208.393 137.668 208.811 138.391 209.714C139.113 210.617 139.501 211.305 139.554 211.779C139.576 212.005 139.181 212.503 138.368 213.275C137.555 214.046 136.659 214.838 135.681 215.651C136.659 216.471 137.555 217.265 138.368 218.033C139.181 218.8 139.576 219.293 139.554 219.511C139.501 219.993 139.113 220.685 138.391 221.588C137.668 222.491 137.171 222.909 136.9 222.841Z" fill="white"/>
</g>
<g opacity="0.42">
<path opacity="0.42" d="M143.718 224.457C143.447 224.525 142.881 224.376 142.019 224.011C141.157 223.646 140.534 223.253 140.151 222.831C139.962 222.628 140.167 221.818 140.766 220.399C141.364 218.98 142.094 217.409 142.956 215.686C143.818 213.963 144.68 212.322 145.542 210.764C146.403 209.207 147 208.187 147.331 207.706C147.564 207.39 147.943 207.269 148.466 207.344C148.989 207.42 149.505 207.593 150.013 207.864C150.521 208.134 150.946 208.458 151.288 208.834C151.631 209.211 151.746 209.538 151.633 209.817C151.204 210.87 150.6 212.202 149.821 213.812C149.042 215.423 148.244 216.995 147.427 218.531C146.61 220.066 145.852 221.407 145.152 222.554C144.452 223.702 143.974 224.336 143.718 224.457Z" fill="white"/>
</g>
<g opacity="0.42">
<path opacity="0.42" d="M155.194 222.841C154.915 222.909 154.415 222.491 153.692 221.588C152.97 220.685 152.586 219.993 152.54 219.511C152.525 219.293 152.92 218.8 153.726 218.033C154.531 217.265 155.427 216.471 156.413 215.651C155.427 214.838 154.531 214.046 153.726 213.275C152.92 212.503 152.525 212.005 152.54 211.779C152.586 211.305 152.97 210.617 153.692 209.714C154.415 208.811 154.915 208.393 155.194 208.461C155.412 208.461 155.943 208.75 156.786 209.33C157.629 209.909 158.52 210.568 159.461 211.305C160.402 212.043 161.262 212.756 162.041 213.444C162.82 214.133 163.262 214.583 163.368 214.793C163.451 214.974 163.504 215.269 163.526 215.679C163.549 216.089 163.477 216.396 163.311 216.599C162.852 217.149 162.205 217.783 161.369 218.501C160.534 219.22 159.691 219.901 158.84 220.544C157.99 221.188 157.215 221.733 156.515 222.181C155.815 222.629 155.374 222.849 155.194 222.841Z" fill="white"/>
</g>
</g>
<g opacity="0.4">
<g opacity="0.4">
<path opacity="0.4" d="M155.646 378.567H112.25C109.319 378.567 106.943 376.191 106.943 373.26V328.609C106.943 325.678 109.319 323.303 112.25 323.303H155.646C158.577 323.303 160.954 325.678 160.954 328.609V373.26C160.954 376.191 158.577 378.567 155.646 378.567Z" fill="#03DAC5"/>
</g>
</g>
<g opacity="0.42">
<g opacity="0.42">
<path opacity="0.42" d="M124.679 359.529C124.49 359.537 124.046 359.316 123.346 358.869C122.646 358.421 121.871 357.875 121.02 357.232C120.17 356.589 119.327 355.908 118.491 355.189C117.656 354.47 117.012 353.836 116.561 353.287C116.403 353.084 116.331 352.777 116.346 352.367C116.361 351.957 116.414 351.661 116.504 351.481C116.602 351.27 117.041 350.821 117.82 350.132C118.599 349.443 119.458 348.731 120.399 347.993C121.34 347.256 122.232 346.597 123.075 346.018C123.918 345.438 124.453 345.148 124.679 345.148C124.95 345.081 125.446 345.498 126.169 346.401C126.891 347.304 127.279 347.993 127.332 348.467C127.354 348.693 126.959 349.191 126.146 349.963C125.333 350.734 124.438 351.526 123.459 352.339C124.438 353.159 125.333 353.953 126.146 354.72C126.959 355.488 127.354 355.981 127.332 356.199C127.279 356.681 126.891 357.373 126.169 358.276C125.446 359.179 124.95 359.597 124.679 359.529Z" fill="white"/>
</g>
<g opacity="0.42">
<path opacity="0.42" d="M131.496 361.144C131.225 361.212 130.659 361.064 129.797 360.699C128.935 360.334 128.312 359.94 127.929 359.519C127.741 359.316 127.945 358.505 128.544 357.086C129.142 355.668 129.872 354.097 130.734 352.374C131.596 350.651 132.458 349.01 133.32 347.452C134.181 345.895 134.778 344.875 135.109 344.394C135.342 344.078 135.721 343.957 136.244 344.032C136.767 344.108 137.283 344.281 137.791 344.552C138.299 344.822 138.724 345.146 139.066 345.522C139.409 345.899 139.524 346.226 139.411 346.504C138.982 347.558 138.378 348.89 137.599 350.5C136.82 352.111 136.022 353.683 135.205 355.219C134.388 356.753 133.63 358.095 132.93 359.242C132.23 360.39 131.752 361.024 131.496 361.144Z" fill="white"/>
</g>
<g opacity="0.42">
<path opacity="0.42" d="M142.971 359.529C142.693 359.597 142.192 359.179 141.47 358.276C140.747 357.373 140.363 356.681 140.318 356.199C140.303 355.981 140.698 355.488 141.503 354.72C142.309 353.953 143.204 353.159 144.191 352.339C143.204 351.526 142.309 350.734 141.503 349.963C140.698 349.191 140.303 348.693 140.318 348.467C140.363 347.993 140.747 347.304 141.47 346.401C142.192 345.498 142.693 345.081 142.971 345.148C143.19 345.148 143.72 345.438 144.563 346.018C145.406 346.597 146.298 347.256 147.239 347.993C148.18 348.731 149.04 349.443 149.819 350.132C150.598 350.821 151.04 351.27 151.145 351.481C151.228 351.661 151.281 351.957 151.303 352.367C151.326 352.777 151.254 353.084 151.089 353.287C150.63 353.836 149.982 354.47 149.147 355.189C148.311 355.908 147.468 356.589 146.618 357.232C145.767 357.875 144.992 358.421 144.292 358.869C143.592 359.316 143.152 359.537 142.971 359.529Z" fill="white"/>
</g>
</g>
<g opacity="0.71">
<g opacity="0.71">
<path opacity="0.71" d="M449.746 124.182H649.177V513.984H449.746V124.182Z" fill="#A9A9FF"/>
</g>
<g opacity="0.71">
<path opacity="0.71" d="M476 124.182H683.023V515.25H476V124.182Z" fill="#D7D7F9"/>
</g>
<g opacity="0.71">
<path opacity="0.71" d="M488.018 138.524H671.036V502.592H488.018V138.524Z" fill="white"/>
</g>
<g opacity="0.42">
<g opacity="0.42">
<path opacity="0.42" d="M600.415 483.557C600.189 483.565 599.656 483.345 598.817 482.897C597.977 482.449 597.047 481.903 596.027 481.26C595.006 480.617 593.995 479.936 592.993 479.217C591.991 478.498 591.219 477.864 590.677 477.315C590.487 477.112 590.402 476.805 590.42 476.395C590.438 475.985 590.501 475.69 590.609 475.509C590.726 475.298 591.253 474.849 592.187 474.16C593.122 473.471 594.153 472.759 595.282 472.021C596.41 471.284 597.48 470.625 598.491 470.046C599.503 469.466 600.144 469.176 600.415 469.176C600.74 469.108 601.336 469.526 602.202 470.429C603.069 471.332 603.534 472.021 603.597 472.495C603.625 472.721 603.15 473.219 602.175 473.991C601.2 474.762 600.126 475.554 598.952 476.367C600.126 477.187 601.2 477.981 602.175 478.748C603.15 479.516 603.625 480.009 603.597 480.227C603.534 480.709 603.069 481.401 602.202 482.304C601.336 483.207 600.74 483.625 600.415 483.557Z" fill="white"/>
</g>
<g opacity="0.42">
<path opacity="0.42" d="M608.645 485.172C608.32 485.24 607.641 485.091 606.607 484.726C605.573 484.361 604.826 483.968 604.366 483.547C604.14 483.344 604.386 482.533 605.104 481.114C605.822 479.696 606.697 478.125 607.731 476.402C608.765 474.679 609.799 473.038 610.833 471.48C611.866 469.923 612.582 468.903 612.979 468.421C613.259 468.105 613.713 467.985 614.34 468.06C614.968 468.135 615.586 468.309 616.196 468.58C616.805 468.85 617.315 469.174 617.726 469.55C618.137 469.927 618.275 470.254 618.139 470.532C617.625 471.586 616.9 472.918 615.966 474.528C615.031 476.138 614.074 477.711 613.094 479.246C612.115 480.781 611.205 482.123 610.365 483.27C609.526 484.418 608.952 485.052 608.645 485.172Z" fill="white"/>
</g>
<g opacity="0.42">
<path opacity="0.42" d="M622.276 483.557C621.941 483.625 621.341 483.207 620.474 482.304C619.607 481.401 619.147 480.709 619.093 480.227C619.075 480.009 619.549 479.516 620.515 478.748C621.481 477.981 622.555 477.187 623.738 476.367C622.555 475.554 621.481 474.762 620.515 473.991C619.549 473.219 619.075 472.721 619.093 472.495C619.147 472.021 619.607 471.332 620.474 470.429C621.341 469.526 621.941 469.108 622.276 469.176C622.537 469.176 623.174 469.466 624.185 470.046C625.196 470.625 626.266 471.284 627.395 472.021C628.524 472.759 629.555 473.471 630.49 474.16C631.424 474.849 631.954 475.298 632.081 475.509C632.18 475.69 632.244 475.985 632.271 476.395C632.298 476.805 632.212 477.112 632.013 477.315C631.462 477.864 630.686 478.498 629.684 479.217C628.682 479.936 627.67 480.617 626.65 481.26C625.63 481.903 624.7 482.449 623.86 482.897C623.02 483.345 622.492 483.565 622.276 483.557Z" fill="white"/>
</g>
</g>
<g opacity="0.71">
<path opacity="0.71" d="M485.091 378.142H679.967V389.954H485.091V378.142Z" fill="#D7D7F9"/>
</g>
<g opacity="0.71">
<path opacity="0.71" d="M485.091 241.036H679.967V252.848H485.091V241.036Z" fill="#F0F0FF"/>
</g>
<g opacity="0.42">
<g opacity="0.42">
<path opacity="0.42" d="M519.799 358.685C519.573 358.692 519.041 358.472 518.201 358.024C517.361 357.577 516.431 357.031 515.411 356.387C514.391 355.744 513.38 355.063 512.377 354.344C511.375 353.626 510.603 352.992 510.062 352.443C509.872 352.239 509.786 351.933 509.804 351.523C509.822 351.112 509.886 350.817 509.994 350.636C510.111 350.426 510.637 349.976 511.572 349.288C512.506 348.599 513.537 347.886 514.666 347.148C515.795 346.411 516.865 345.752 517.876 345.173C518.887 344.594 519.529 344.304 519.799 344.304C520.124 344.236 520.72 344.654 521.587 345.557C522.454 346.46 522.919 347.148 522.982 347.622C523.009 347.848 522.535 348.347 521.56 349.118C520.585 349.89 519.51 350.681 518.336 351.494C519.51 352.315 520.585 353.108 521.56 353.876C522.535 354.643 523.009 355.136 522.982 355.354C522.919 355.836 522.454 356.529 521.587 357.432C520.72 358.335 520.124 358.753 519.799 358.685Z" fill="white"/>
</g>
<g opacity="0.42">
<path opacity="0.42" d="M528.03 360.3C527.705 360.368 527.025 360.219 525.992 359.854C524.958 359.489 524.211 359.096 523.75 358.675C523.525 358.472 523.771 357.661 524.488 356.242C525.206 354.824 526.082 353.253 527.116 351.529C528.15 349.806 529.183 348.166 530.217 346.608C531.251 345.05 531.967 344.031 532.364 343.549C532.644 343.233 533.098 343.113 533.725 343.188C534.353 343.263 534.971 343.436 535.581 343.707C536.19 343.978 536.7 344.302 537.111 344.678C537.522 345.054 537.66 345.381 537.524 345.66C537.009 346.713 536.285 348.045 535.35 349.656C534.416 351.266 533.459 352.839 532.479 354.374C531.499 355.909 530.59 357.25 529.75 358.398C528.91 359.546 528.337 360.18 528.03 360.3Z" fill="white"/>
</g>
<g opacity="0.42">
<path opacity="0.42" d="M541.66 358.685C541.326 358.753 540.726 358.335 539.859 357.432C538.992 356.529 538.532 355.836 538.477 355.354C538.459 355.136 538.933 354.643 539.9 353.876C540.865 353.108 541.94 352.315 543.123 351.494C541.94 350.681 540.865 349.89 539.9 349.118C538.933 348.347 538.459 347.848 538.477 347.622C538.532 347.148 538.992 346.46 539.859 345.557C540.726 344.654 541.326 344.236 541.66 344.304C541.922 344.304 542.558 344.594 543.57 345.173C544.581 345.752 545.651 346.411 546.78 347.148C547.908 347.886 548.94 348.599 549.874 349.288C550.809 349.976 551.339 350.426 551.466 350.636C551.565 350.817 551.628 351.112 551.655 351.523C551.682 351.933 551.596 352.239 551.398 352.443C550.847 352.992 550.071 353.626 549.068 354.344C548.066 355.063 547.055 355.744 546.035 356.387C545.014 357.031 544.084 357.577 543.245 358.024C542.405 358.472 541.877 358.692 541.66 358.685Z" fill="white"/>
</g>
</g>
</g>
<g opacity="0.16">
<g opacity="0.16">
<path opacity="0.16" d="M458.83 48.6566H704.411V298.821H458.83V48.6566Z" fill="black"/>
</g>
</g>
<path d="M449.194 34.7411H694.775V284.906H449.194V34.7411Z" fill="#DCD9FF"/>
<path d="M464.298 222.582H679.498V270.988H464.298V222.582Z" fill="#03DAC5"/>
<path d="M465.708 158.35H680.908V206.757H465.708V158.35Z" fill="#03DAC5"/>
<g opacity="0.34">
<g opacity="0.34">
<path opacity="0.34" d="M605.172 173.094C604.387 172.861 603.815 172.135 603.815 171.275C603.814 170.227 604.664 169.376 605.712 169.376L637.876 169.358C638.925 169.359 639.776 170.207 639.776 171.256C639.777 172.304 638.927 173.154 637.878 173.155L605.714 173.173C605.526 173.173 605.344 173.145 605.172 173.094Z" fill="white"/>
</g>
</g>
<g opacity="0.66">
<g opacity="0.66">
<path opacity="0.66" d="M560.515 173.115C559.732 172.883 559.16 172.16 559.158 171.301C559.154 170.253 560.002 169.4 561.051 169.397L595.387 169.292C596.434 169.288 597.288 170.136 597.291 171.184C597.294 172.233 596.447 173.085 595.398 173.088L561.062 173.194C560.872 173.194 560.688 173.167 560.515 173.115Z" fill="white"/>
</g>
</g>
<path d="M493.763 173.153C492.979 172.92 492.406 172.194 492.406 171.334C492.406 170.285 493.255 169.435 494.304 169.434L552.033 169.402C553.081 169.403 553.933 170.251 553.933 171.3C553.934 172.348 553.084 173.198 552.035 173.199L494.306 173.231C494.118 173.231 493.935 173.204 493.763 173.153Z" fill="white"/>
<g opacity="0.66">
<g opacity="0.66">
<path opacity="0.66" d="M570.857 187.014C570.072 186.781 569.499 186.055 569.499 185.195C569.499 184.147 570.348 183.296 571.397 183.295L637.121 183.259C638.168 183.26 639.02 184.108 639.021 185.156C639.021 186.205 638.172 187.055 637.123 187.056L571.399 187.092C571.211 187.092 571.028 187.065 570.857 187.014Z" fill="white"/>
</g>
</g>
<g opacity="0.83">
<g opacity="0.83">
<path opacity="0.83" d="M493.059 187.055C492.274 186.822 491.702 186.096 491.701 185.236C491.701 184.188 492.55 183.337 493.599 183.337L563.822 183.281C564.871 183.28 565.722 184.129 565.723 185.178C565.723 186.226 564.874 187.077 563.825 187.077L493.601 187.133C493.413 187.133 493.231 187.106 493.059 187.055Z" fill="white"/>
</g>
</g>
<g opacity="0.89">
<g opacity="0.89">
<path opacity="0.89" d="M538.656 199.687C537.874 199.454 537.302 198.731 537.299 197.872C537.296 196.824 538.143 195.972 539.192 195.968L579.615 195.845C580.663 195.841 581.517 196.689 581.52 197.738C581.523 198.786 580.676 199.638 579.627 199.642L539.204 199.765C539.014 199.766 538.83 199.738 538.656 199.687Z" fill="white"/>
</g>
</g>
<g opacity="0.66">
<g opacity="0.66">
<path opacity="0.66" d="M494.704 199.817C493.922 199.585 493.351 198.863 493.347 198.005C493.342 196.957 494.188 196.103 495.237 196.099L532.48 195.933C533.529 195.931 534.383 196.775 534.388 197.824C534.392 198.872 533.546 199.726 532.497 199.73L495.254 199.896C495.063 199.896 494.878 199.869 494.704 199.817Z" fill="white"/>
</g>
</g>
<g opacity="0.89">
<g opacity="0.89">
<path opacity="0.89" d="M586.369 199.315C585.585 199.082 585.012 198.357 585.012 197.497C585.011 196.448 585.86 195.598 586.909 195.597L636.44 195.559C637.488 195.558 638.339 196.407 638.34 197.456C638.341 198.504 637.491 199.355 636.443 199.355L586.912 199.393C586.723 199.394 586.541 199.366 586.369 199.315Z" fill="white"/>
</g>
</g>
<g opacity="0.25">
<g opacity="0.34">
<g opacity="0.34">
<path opacity="0.34" d="M603.762 235.953C602.978 235.72 602.405 234.994 602.405 234.134C602.404 233.085 603.254 232.235 604.303 232.234L636.467 232.217C637.515 232.217 638.366 233.066 638.366 234.114C638.367 235.162 637.517 236.013 636.469 236.014L604.305 236.031C604.116 236.031 603.934 236.004 603.762 235.953Z" fill="white"/>
</g>
</g>
<g opacity="0.66">
<g opacity="0.66">
<path opacity="0.66" d="M559.106 235.974C558.323 235.742 557.751 235.018 557.748 234.16C557.745 233.111 558.592 232.259 559.641 232.256L593.977 232.15C595.025 232.146 595.878 232.994 595.882 234.043C595.885 235.091 595.037 235.944 593.989 235.947L559.653 236.052C559.463 236.053 559.279 236.025 559.106 235.974Z" fill="white"/>
</g>
</g>
<g opacity="0.25">
<path opacity="0.25" d="M492.544 236.004C491.759 235.771 491.186 235.045 491.186 234.185C491.186 233.137 492.035 232.286 493.084 232.286L550.813 232.254C551.861 232.255 552.713 233.103 552.713 234.151C552.714 235.2 551.864 236.05 550.815 236.051L493.086 236.083C492.898 236.083 492.715 236.055 492.544 236.004Z" fill="white"/>
</g>
<g opacity="0.66">
<g opacity="0.66">
<path opacity="0.66" d="M569.681 249.872C568.897 249.64 568.324 248.913 568.324 248.053C568.323 247.005 569.173 246.155 570.222 246.154L635.946 246.117C636.993 246.118 637.845 246.966 637.845 248.015C637.846 249.063 636.997 249.914 635.948 249.914L570.224 249.951C570.035 249.951 569.853 249.923 569.681 249.872Z" fill="white"/>
</g>
</g>
<g opacity="0.83">
<g opacity="0.83">
<path opacity="0.83" d="M491.884 249.913C491.099 249.68 490.527 248.955 490.526 248.095C490.525 247.046 491.375 246.196 492.424 246.195L562.648 246.139C563.696 246.138 564.547 246.988 564.548 248.036C564.549 249.084 563.699 249.935 562.65 249.936L492.426 249.991C492.238 249.992 492.056 249.964 491.884 249.913Z" fill="white"/>
</g>
</g>
<g opacity="0.89">
<g opacity="0.89">
<path opacity="0.89" d="M537.246 262.545C536.464 262.313 535.892 261.589 535.889 260.731C535.886 259.682 536.733 258.83 537.782 258.827L578.205 258.704C579.253 258.699 580.107 259.547 580.11 260.596C580.113 261.644 579.265 262.497 578.217 262.5L537.794 262.623C537.604 262.624 537.42 262.597 537.246 262.545Z" fill="white"/>
</g>
</g>
<g opacity="0.66">
<g opacity="0.66">
<path opacity="0.66" d="M493.294 262.676C492.512 262.443 491.94 261.721 491.937 260.864C491.932 259.816 492.778 258.962 493.827 258.957L531.07 258.792C532.119 258.789 532.973 259.633 532.978 260.682C532.982 261.73 532.136 262.584 531.087 262.589L493.844 262.754C493.653 262.755 493.468 262.727 493.294 262.676Z" fill="white"/>
</g>
</g>
<g opacity="0.89">
<g opacity="0.89">
<path opacity="0.89" d="M585.194 262.181C584.41 261.948 583.837 261.223 583.837 260.362C583.836 259.314 584.685 258.463 585.734 258.463L635.265 258.425C636.313 258.424 637.164 259.273 637.165 260.321C637.166 261.37 636.316 262.22 635.268 262.221L585.737 262.259C585.549 262.26 585.366 262.232 585.194 262.181Z" fill="white"/>
</g>
</g>
</g>
<g opacity="0.11">
<g opacity="0.11">
<path opacity="0.11" d="M464.532 85.7915H679.732V132.618H464.532V85.7915Z" fill="#6200EE"/>
</g>
</g>
<path d="M449.194 34.7484H694.775V77.7785H449.194V34.7484Z" fill="#6200EE"/>
<path d="M198.593 515.954H259.056L251.498 319.506H187.796L198.593 515.954Z" fill="#CBCAF9"/>
<path d="M437.172 508.738H509.512L518.15 323.105H444.73L437.172 508.738Z" fill="#CBCAF9"/>
<path d="M257.874 330.319H514.843L506.713 505.14H264.979L257.874 330.319ZM250.316 319.506L257.874 515.953H514.843L523.481 319.506H250.316Z" fill="#E8E6FF"/>
<path d="M424.328 146.198L603.485 80.5631L612.595 121.055L433.438 186.689L424.328 146.198Z" fill="#6200EE"/>
<g opacity="0.36">
<path opacity="0.36" d="M475.013 56.2587C475.013 59.7536 472.179 62.5868 468.683 62.5868C465.188 62.5868 462.354 59.7536 462.354 56.2587C462.354 52.7639 465.188 49.9308 468.683 49.9308C472.179 49.9308 475.013 52.7639 475.013 56.2587Z" fill="white"/>
</g>
<g opacity="0.24">
<g opacity="0.24">
<path opacity="0.24" d="M396.51 57.724C396.51 60.5191 394.244 62.785 391.448 62.785C388.652 62.785 386.386 60.5191 386.386 57.724C386.386 54.9289 388.652 52.663 391.448 52.663C394.244 52.663 396.51 54.9289 396.51 57.724Z" fill="white"/>
</g>
</g>
<g opacity="0.14">
<g opacity="0.14">
<path opacity="0.14" d="M409.206 57.724C409.206 60.5191 406.939 62.785 404.143 62.785C401.348 62.785 399.081 60.5191 399.081 57.724C399.081 54.9289 401.348 52.663 404.143 52.663C406.939 52.663 409.206 54.9289 409.206 57.724Z" fill="white"/>
</g>
</g>
<g opacity="0.26">
<path opacity="0.26" d="M495.227 56.2587C495.227 59.7536 492.393 62.5867 488.897 62.5867C485.401 62.5867 482.568 59.7536 482.568 56.2587C482.568 52.7639 485.401 49.9308 488.897 49.9308C492.393 49.9308 495.227 52.7639 495.227 56.2587Z" fill="white"/>
</g>
<g opacity="0.15">
<path opacity="0.15" d="M516.377 56.2587C516.377 59.7536 513.543 62.5867 510.047 62.5867C506.552 62.5867 503.718 59.7536 503.718 56.2587C503.718 52.7639 506.552 49.9308 510.047 49.9308C513.543 49.9308 516.377 52.7639 516.377 56.2587Z" fill="white"/>
</g>
<g opacity="0.34">
<g opacity="0.34">
<path opacity="0.34" d="M551.655 112.212C550.836 112.212 550.081 111.679 549.835 110.855C549.536 109.85 550.109 108.793 551.114 108.494L581.942 99.3233C582.947 99.0254 584.005 99.5968 584.304 100.602C584.603 101.607 584.03 102.664 583.025 102.963L552.197 112.133C552.016 112.187 551.834 112.212 551.655 112.212Z" fill="white"/>
</g>
</g>
<g opacity="0.66">
<g opacity="0.66">
<path opacity="0.66" d="M508.877 124.936C508.061 124.936 507.306 124.405 507.059 123.583C506.758 122.579 507.328 121.52 508.332 121.219L541.217 111.346C542.22 111.044 543.28 111.614 543.582 112.618C543.884 113.622 543.314 114.681 542.309 114.982L509.424 124.855C509.242 124.91 509.058 124.936 508.877 124.936Z" fill="white"/>
</g>
</g>
<path d="M444.947 143.962C444.129 143.962 443.373 143.429 443.128 142.605C442.829 141.6 443.401 140.543 444.406 140.244L499.738 123.783C500.743 123.486 501.801 124.057 502.099 125.062C502.398 126.067 501.826 127.124 500.821 127.423L445.489 143.883C445.309 143.937 445.126 143.962 444.947 143.962Z" fill="white"/>
<g opacity="0.66">
<g opacity="0.66">
<path opacity="0.66" d="M522.979 135.285C522.161 135.285 521.405 134.752 521.16 133.928C520.861 132.923 521.434 131.866 522.439 131.567L585.433 112.827C586.438 112.53 587.496 113.101 587.795 114.106C588.094 115.11 587.521 116.168 586.516 116.467L523.522 135.206C523.341 135.26 523.159 135.285 522.979 135.285Z" fill="white"/>
</g>
</g>
<g opacity="0.83">
<g opacity="0.83">
<path opacity="0.83" d="M448.238 157.462C447.42 157.462 446.664 156.929 446.419 156.105C446.119 155.1 446.691 154.043 447.697 153.744L514.999 133.705C516.004 133.406 517.062 133.978 517.361 134.983C517.66 135.988 517.088 137.045 516.083 137.344L448.78 157.382C448.6 157.436 448.417 157.462 448.238 157.462Z" fill="white"/>
</g>
</g>
<g opacity="0.89">
<g opacity="0.89">
<path opacity="0.89" d="M495.48 156.639C494.664 156.639 493.909 156.108 493.662 155.286C493.361 154.282 493.931 153.223 494.935 152.922L533.651 141.3C534.654 140.997 535.714 141.567 536.016 142.572C536.317 143.576 535.747 144.634 534.743 144.936L496.027 156.558C495.845 156.613 495.661 156.639 495.48 156.639Z" fill="white"/>
</g>
</g>
<g opacity="0.66">
<g opacity="0.66">
<path opacity="0.66" d="M453.409 169.278C452.593 169.278 451.839 168.748 451.591 167.927C451.288 166.924 451.857 165.864 452.861 165.561L488.516 154.804C489.521 154.503 490.58 155.069 490.883 156.073C491.186 157.077 490.618 158.136 489.614 158.439L453.958 169.196C453.775 169.251 453.59 169.278 453.409 169.278Z" fill="white"/>
</g>
</g>
<g opacity="0.89">
<g opacity="0.89">
<path opacity="0.89" d="M541.078 142.7C540.26 142.7 539.504 142.167 539.259 141.343C538.959 140.338 539.532 139.281 540.537 138.981L588.007 124.849C589.012 124.55 590.07 125.121 590.369 126.127C590.668 127.131 590.096 128.189 589.091 128.488L541.62 142.62C541.44 142.674 541.257 142.7 541.078 142.7Z" fill="white"/>
</g>
</g>
<path d="M577.613 446.888C577.613 446.888 575.66 418.793 551.525 412.566C527.39 406.339 535.954 342.513 535.954 342.513C535.954 342.513 533.229 383.377 559.7 393.496C586.171 403.615 597.459 431.247 597.849 444.479L577.613 446.888Z" fill="#FFB0B0"/>
<path d="M587.699 450.705C587.699 450.705 586.92 412.566 570.181 388.825C553.443 365.085 572.907 340.177 572.907 340.177C572.907 340.177 567.846 368.199 585.363 384.544C602.881 400.89 603.27 450.705 603.27 450.705H587.699Z" fill="#FF9F9F"/>
<path d="M593.943 442.137C593.943 442.137 599.393 390.376 618.857 383.37C638.32 376.365 648.052 357.295 648.052 357.295C648.052 357.295 640.656 375.976 623.528 397.381C606.4 418.786 616.521 446.807 616.521 446.807L593.943 442.137Z" fill="#FF8080"/>
<path d="M605.695 446.808C605.695 446.808 613.87 411.781 630.609 408.668C647.347 405.554 652.797 390.765 652.797 390.765C652.797 390.765 648.904 412.17 639.951 416.451C630.998 420.732 618.65 421.652 616.065 445.127L605.695 446.808Z" fill="#03DAC5"/>
<path d="M596.825 437.882C596.825 437.882 582.908 386.094 595.365 371.305C607.822 356.516 601.594 344.451 601.594 344.451C601.594 344.451 610.936 361.964 605.486 382.591C600.036 403.218 607.193 441.358 607.193 441.358L596.825 437.882Z" fill="#FF9292"/>
<path d="M619.643 437.623L615.33 511.934L615.09 516.089H581.333L578.742 485.567L574.67 437.623H619.643Z" fill="#6200EE"/>
<path d="M571.892 433.408H623.793V444.798H571.892V433.408Z" fill="#564AAF"/>
<g opacity="0.76">
<g opacity="0.76">
<path opacity="0.76" d="M575.141 444.797L618.595 453.284L619.088 444.797H575.141Z" fill="#223040"/>
</g>
</g>
<g opacity="0.1">
<g opacity="0.1">
<path opacity="0.1" d="M615.254 511.933L615.013 516.089H581.257L578.666 485.567C581.337 494.16 585.573 501.598 592.228 505.12C600.532 509.516 608.275 511.085 615.254 511.933Z" fill="#223040"/>
</g>
</g>
<path d="M304.845 61.5404C304.845 77.2984 292.068 90.0727 276.306 90.0727C260.545 90.0727 247.767 77.2984 247.767 61.5404C247.767 45.7824 260.545 33.008 276.306 33.008C292.068 33.008 304.845 45.7824 304.845 61.5404Z" fill="#03DAC5"/>
<g opacity="0.52">
<path opacity="0.52" d="M268.38 69.3077C268.206 69.315 267.794 69.1108 267.146 68.6959C266.497 68.2813 265.779 67.7756 264.991 67.1794C264.203 66.5836 263.422 65.9526 262.648 65.2866C261.874 64.6209 261.278 64.0335 260.859 63.5247C260.713 63.3362 260.647 63.0521 260.661 62.6724C260.674 62.2922 260.723 62.0185 260.807 61.8513C260.897 61.6563 261.304 61.2395 262.026 60.6017C262.747 59.9635 263.544 59.3032 264.416 58.6196C265.287 57.9368 266.114 57.3264 266.895 56.7898C267.676 56.2527 268.171 55.9844 268.38 55.9844C268.631 55.9214 269.092 56.3085 269.761 57.1451C270.43 57.9818 270.789 58.6196 270.838 59.0589C270.859 59.2681 270.493 59.7299 269.74 60.4448C268.987 61.1594 268.157 61.8929 267.25 62.646C268.157 63.406 268.987 64.1416 269.74 64.8526C270.493 65.5637 270.859 66.0206 270.838 66.2225C270.789 66.6691 270.43 67.3103 269.761 68.1469C269.092 68.9836 268.631 69.3707 268.38 69.3077Z" fill="white"/>
<path opacity="0.52" d="M274.838 70.8021C274.587 70.8651 274.062 70.7272 273.264 70.3891C272.465 70.0509 271.888 69.6868 271.533 69.2963C271.359 69.1082 271.548 68.3569 272.103 67.0425C272.657 65.7282 273.334 64.2728 274.132 62.6762C274.931 61.08 275.729 59.5597 276.528 58.1165C277.326 56.6734 277.878 55.7286 278.185 55.2824C278.402 54.9897 278.752 54.8783 279.237 54.9477C279.721 55.0175 280.199 55.1778 280.67 55.429C281.141 55.6797 281.534 55.9798 281.852 56.3282C282.169 56.6771 282.275 56.9802 282.171 57.2382C281.773 58.2142 281.214 59.4482 280.492 60.9403C279.77 62.4323 279.031 63.8892 278.274 65.3118C277.518 66.734 276.815 67.9768 276.167 69.0397C275.518 70.1032 275.075 70.6906 274.838 70.8021Z" fill="white"/>
<path opacity="0.52" d="M285.211 69.3077C284.953 69.3707 284.489 68.9836 283.82 68.1469C283.15 67.3103 282.795 66.6691 282.753 66.2225C282.739 66.0206 283.105 65.5637 283.851 64.8526C284.597 64.1416 285.427 63.406 286.341 62.646C285.427 61.8929 284.597 61.1594 283.851 60.4448C283.105 59.7299 282.739 59.2681 282.753 59.0589C282.795 58.6196 283.15 57.9818 283.82 57.1451C284.489 56.3085 284.953 55.9214 285.211 55.9844C285.413 55.9844 285.905 56.2527 286.686 56.7898C287.467 57.3264 288.293 57.9368 289.165 58.6196C290.036 59.3032 290.833 59.9635 291.555 60.6017C292.277 61.2395 292.686 61.6563 292.784 61.8513C292.861 62.0185 292.91 62.2922 292.931 62.6724C292.952 63.0521 292.885 63.3362 292.732 63.5247C292.306 64.0335 291.707 64.6209 290.933 65.2866C290.159 65.9526 289.378 66.5836 288.59 67.1794C287.802 67.7756 287.083 68.2813 286.435 68.6959C285.786 69.1108 285.378 69.315 285.211 69.3077Z" fill="white"/>
</g>
<g opacity="0.17">
<g opacity="0.17">
<path opacity="0.17" d="M11.9789 367.392C11.7081 367.403 11.0699 367.087 10.0637 366.443C9.05775 365.8 7.94334 365.015 6.72101 364.09C5.49824 363.166 4.28671 362.187 3.08588 361.154C1.88504 360.121 0.960295 359.21 0.3111 358.421C0.0840048 358.128 -0.0187929 357.688 0.00281483 357.098C0.0244226 356.509 0.100264 356.084 0.230017 355.825C0.370361 355.522 1.00084 354.876 2.12048 353.886C3.24023 352.896 4.47594 351.872 5.82835 350.811C7.18055 349.752 8.46246 348.805 9.67432 347.973C10.8858 347.139 11.6543 346.723 11.9789 346.723C12.3682 346.625 13.0822 347.226 14.1208 348.524C15.1593 349.822 15.7164 350.811 15.7922 351.493C15.8247 351.817 15.2568 352.534 14.0882 353.643C12.92 354.751 11.6324 355.889 10.226 357.058C11.6324 358.237 12.92 359.378 14.0882 360.481C15.2568 361.584 15.8247 362.293 15.7922 362.606C15.7164 363.299 15.1593 364.293 14.1208 365.591C13.0822 366.889 12.3682 367.49 11.9789 367.392Z" fill="#6200EE"/>
</g>
<g opacity="0.17">
<path opacity="0.17" d="M21.9127 369.709C21.5232 369.807 20.7088 369.593 19.4703 369.068C18.2313 368.544 17.3364 367.979 16.7848 367.373C16.5144 367.081 16.8091 365.916 17.669 363.877C18.5293 361.838 19.5785 359.58 20.8172 357.103C22.056 354.627 23.2944 352.268 24.5334 350.029C25.7719 347.791 26.6291 346.325 27.1053 345.633C27.4406 345.179 27.9843 345.006 28.7362 345.114C29.4881 345.222 30.2293 345.471 30.9595 345.86C31.6898 346.249 32.3007 346.715 32.7932 347.255C33.2854 347.797 33.4503 348.267 33.288 348.667C32.6715 350.181 31.8032 352.095 30.6836 354.41C29.5638 356.725 28.4169 358.985 27.2433 361.192C26.0695 363.398 24.9797 365.326 23.9734 366.975C22.9675 368.625 22.2802 369.536 21.9127 369.709Z" fill="#6200EE"/>
</g>
<g opacity="0.17">
<path opacity="0.17" d="M38.1299 367.392C37.7295 367.49 37.01 366.889 35.9714 365.591C34.9328 364.293 34.3812 363.299 34.3163 362.606C34.2947 362.293 34.8623 361.584 36.0202 360.481C37.1776 359.378 38.4648 358.237 39.8824 357.058C38.4648 355.889 37.1776 354.751 36.0202 353.643C34.8623 352.534 34.2947 351.817 34.3163 351.493C34.3812 350.811 34.9328 349.822 35.9714 348.524C37.01 347.226 37.7295 346.625 38.1299 346.723C38.4435 346.723 39.206 347.139 40.4179 347.973C41.6293 348.805 42.9113 349.752 44.2637 350.811C45.6158 351.872 46.8519 352.896 47.9716 353.886C49.0913 354.876 49.7268 355.522 49.8784 355.825C49.9975 356.084 50.0733 356.509 50.1056 357.098C50.1381 357.688 50.0351 358.128 49.7973 358.421C49.1372 359.21 48.207 360.121 47.0062 361.154C45.8053 362.187 44.5936 363.166 43.3712 364.09C42.1487 365.015 41.0343 365.8 40.0284 366.443C39.0221 367.087 38.3893 367.403 38.1299 367.392Z" fill="#6200EE"/>
</g>
</g>
<g opacity="0.13">
<g opacity="0.13">
<path opacity="0.13" d="M724.93 371.83C724.722 371.839 724.23 371.595 723.454 371.098C722.678 370.602 721.819 369.997 720.876 369.284C719.933 368.572 718.999 367.817 718.073 367.02C717.147 366.224 716.434 365.521 715.933 364.912C715.758 364.687 715.679 364.347 715.696 363.893C715.712 363.438 715.771 363.111 715.871 362.911C715.979 362.677 716.465 362.179 717.329 361.416C718.192 360.652 719.145 359.863 720.188 359.045C721.23 358.228 722.219 357.498 723.153 356.856C724.087 356.214 724.68 355.893 724.93 355.893C725.231 355.817 725.781 356.28 726.582 357.281C727.383 358.282 727.812 359.045 727.871 359.57C727.896 359.82 727.458 360.373 726.557 361.228C725.656 362.083 724.663 362.96 723.579 363.861C724.663 364.77 725.656 365.65 726.557 366.501C727.458 367.351 727.896 367.898 727.871 368.14C727.812 368.674 727.383 369.441 726.582 370.442C725.781 371.443 725.231 371.905 724.93 371.83Z" fill="#6200EE"/>
</g>
<g opacity="0.13">
<path opacity="0.13" d="M732.65 373.618C732.35 373.693 731.722 373.529 730.767 373.124C729.812 372.72 729.122 372.284 728.696 371.817C728.488 371.592 728.715 370.693 729.378 369.121C730.041 367.549 730.85 365.808 731.806 363.898C732.761 361.988 733.716 360.17 734.671 358.443C735.626 356.717 736.287 355.587 736.654 355.053C736.913 354.703 737.332 354.57 737.912 354.653C738.491 354.736 739.063 354.928 739.626 355.229C740.189 355.529 740.66 355.887 741.04 356.304C741.419 356.722 741.547 357.084 741.421 357.393C740.946 358.56 740.277 360.036 739.413 361.821C738.55 363.606 737.666 365.349 736.761 367.051C735.855 368.752 735.015 370.238 734.239 371.51C733.464 372.782 732.933 373.485 732.65 373.618Z" fill="#6200EE"/>
</g>
<g opacity="0.13">
<path opacity="0.13" d="M745.194 371.83C744.885 371.905 744.331 371.443 743.53 370.442C742.729 369.441 742.304 368.674 742.254 368.14C742.237 367.898 742.675 367.351 743.567 366.501C744.46 365.65 745.452 364.77 746.546 363.861C745.452 362.96 744.46 362.083 743.567 361.228C742.675 360.373 742.237 359.82 742.254 359.57C742.304 359.045 742.729 358.282 743.53 357.281C744.331 356.28 744.885 355.817 745.194 355.893C745.436 355.893 746.024 356.214 746.958 356.856C747.892 357.498 748.881 358.228 749.924 359.045C750.967 359.863 751.92 360.652 752.783 361.416C753.646 362.179 754.137 362.677 754.253 362.911C754.345 363.111 754.404 363.438 754.428 363.893C754.454 364.347 754.374 364.687 754.191 364.912C753.682 365.521 752.965 366.224 752.039 367.02C751.113 367.817 750.178 368.572 749.236 369.284C748.293 369.997 747.434 370.602 746.658 371.098C745.882 371.595 745.394 371.839 745.194 371.83Z" fill="#6200EE"/>
</g>
</g>
<g opacity="0.19">
<g opacity="0.19">
<path opacity="0.19" d="M370.064 174.881C369.817 174.891 369.235 174.603 368.317 174.016C367.4 173.429 366.383 172.714 365.269 171.87C364.154 171.027 363.049 170.135 361.954 169.192C360.859 168.251 360.015 167.419 359.423 166.7C359.216 166.433 359.122 166.031 359.142 165.494C359.162 164.956 359.231 164.569 359.349 164.332C359.477 164.056 360.052 163.467 361.073 162.564C362.094 161.661 363.221 160.727 364.455 159.76C365.688 158.794 366.857 157.931 367.962 157.171C369.067 156.412 369.768 156.032 370.064 156.032C370.419 155.943 371.07 156.49 372.017 157.674C372.964 158.858 373.472 159.76 373.541 160.382C373.571 160.678 373.053 161.331 371.987 162.342C370.922 163.353 369.748 164.391 368.465 165.457C369.748 166.532 370.922 167.572 371.987 168.578C373.053 169.584 373.571 170.231 373.541 170.516C373.472 171.148 372.964 172.055 372.017 173.239C371.07 174.423 370.419 174.97 370.064 174.881Z" fill="#6200EE"/>
</g>
<g opacity="0.19">
<path opacity="0.19" d="M378.947 176.998C378.592 177.087 377.85 176.892 376.72 176.413C375.59 175.935 374.774 175.42 374.271 174.867C374.025 174.601 374.293 173.538 375.077 171.679C375.862 169.819 376.819 167.76 377.948 165.501C379.078 163.243 380.208 161.092 381.337 159.051C382.467 157.009 383.249 155.672 383.683 155.041C383.989 154.627 384.485 154.469 385.17 154.568C385.856 154.666 386.532 154.893 387.198 155.248C387.864 155.603 388.421 156.028 388.87 156.521C389.319 157.014 389.469 157.443 389.321 157.808C388.759 159.189 387.967 160.935 386.946 163.046C385.925 165.156 384.879 167.218 383.809 169.23C382.738 171.242 381.745 173 380.827 174.504C379.909 176.009 379.283 176.84 378.947 176.998Z" fill="#6200EE"/>
</g>
<g opacity="0.19">
<path opacity="0.19" d="M393.878 174.881C393.513 174.97 392.856 174.423 391.909 173.239C390.962 172.055 390.459 171.148 390.4 170.516C390.38 170.231 390.898 169.584 391.954 168.578C393.009 167.572 394.183 166.532 395.476 165.457C394.183 164.391 393.009 163.353 391.954 162.342C390.898 161.331 390.38 160.678 390.4 160.382C390.459 159.76 390.962 158.858 391.909 157.674C392.856 156.49 393.513 155.943 393.878 156.032C394.164 156.032 394.859 156.412 395.964 157.171C397.069 157.931 398.238 158.794 399.472 159.76C400.705 160.727 401.832 161.661 402.853 162.564C403.874 163.467 404.454 164.056 404.592 164.332C404.701 164.569 404.77 164.956 404.799 165.494C404.829 166.031 404.735 166.433 404.518 166.7C403.916 167.419 403.068 168.251 401.973 169.192C400.878 170.135 399.772 171.027 398.658 171.87C397.543 172.714 396.527 173.429 395.609 174.016C394.691 174.603 394.114 174.891 393.878 174.881Z" fill="#6200EE"/>
</g>
</g>
<g opacity="0.11">
<g opacity="0.11">
<path opacity="0.11" d="M172.78 104.441C172.419 104.456 171.566 104.033 170.221 103.173C168.876 102.313 167.387 101.264 165.753 100.028C164.119 98.7931 162.5 97.4849 160.895 96.104C159.29 94.7238 158.054 93.5058 157.187 92.4509C156.883 92.06 156.746 91.4712 156.775 90.6837C156.803 89.8956 156.905 89.3281 157.078 88.9814C157.266 88.5771 158.108 87.7129 159.605 86.3905C161.101 85.0673 162.753 83.6983 164.56 82.2808C166.367 80.865 168.081 79.5996 169.7 78.487C171.319 77.3735 172.347 76.817 172.78 76.817C173.301 76.6866 174.255 77.489 175.643 79.2237C177.031 80.9583 177.776 82.2808 177.877 83.1917C177.92 83.6253 177.161 84.583 175.6 86.0653C174.038 87.5466 172.317 89.0677 170.438 90.6291C172.317 92.2048 174.038 93.7297 175.6 95.2041C177.161 96.6785 177.92 97.6257 177.877 98.0444C177.776 98.9703 177.031 100.3 175.643 102.035C174.255 103.769 173.301 104.572 172.78 104.441Z" fill="#6200EE"/>
</g>
<g opacity="0.11">
<path opacity="0.11" d="M186.083 107.543C185.562 107.674 184.474 107.388 182.819 106.687C181.163 105.986 179.967 105.231 179.229 104.421C178.868 104.031 179.262 102.473 180.411 99.7479C181.561 97.0231 182.963 94.0056 184.619 90.6952C186.274 87.3856 187.929 84.2335 189.585 81.2413C191.241 78.2492 192.386 76.2905 193.023 75.3653C193.471 74.7583 194.197 74.5272 195.202 74.6712C196.207 74.816 197.198 75.1484 198.174 75.6691C199.15 76.1891 199.966 76.8112 200.625 77.5337C201.282 78.2571 201.503 78.8854 201.286 79.4204C200.462 81.4439 199.301 84.0024 197.805 87.096C196.309 90.1895 194.776 93.2102 193.207 96.1598C191.638 99.1084 190.182 101.685 188.837 103.889C187.492 106.094 186.574 107.312 186.083 107.543Z" fill="#6200EE"/>
</g>
<g opacity="0.11">
<path opacity="0.11" d="M207.701 104.441C207.166 104.572 206.204 103.769 204.816 102.035C203.428 100.3 202.691 98.9703 202.604 98.0444C202.575 97.6257 203.334 96.6785 204.882 95.2041C206.428 93.7297 208.149 92.2048 210.043 90.6291C208.149 89.0677 206.428 87.5466 204.882 86.0653C203.334 84.583 202.575 83.6253 202.604 83.1917C202.691 82.2808 203.428 80.9583 204.816 79.2237C206.204 77.489 207.166 76.6866 207.701 76.817C208.12 76.817 209.139 77.3735 210.759 78.487C212.378 79.5996 214.091 80.865 215.899 82.2808C217.706 83.6983 219.358 85.0673 220.855 86.3905C222.351 87.7129 223.2 88.5771 223.403 88.9814C223.562 89.3281 223.663 89.8956 223.707 90.6837C223.75 91.4712 223.612 92.06 223.294 92.4509C222.412 93.5058 221.169 94.7238 219.564 96.104C217.959 97.4849 216.34 98.7931 214.706 100.028C213.072 101.264 211.583 102.313 210.238 103.173C208.894 104.033 208.048 104.456 207.701 104.441Z" fill="#6200EE"/>
</g>
</g>
<g opacity="0.27">
<g opacity="0.27">
<path opacity="0.27" d="M466.916 469.564C466.717 469.573 466.247 469.339 465.505 468.865C464.764 468.391 463.943 467.813 463.043 467.132C462.142 466.451 461.249 465.73 460.365 464.968C459.48 464.208 458.798 463.536 458.32 462.955C458.153 462.739 458.077 462.414 458.093 461.98C458.109 461.546 458.165 461.233 458.26 461.042C458.364 460.819 458.828 460.343 459.653 459.614C460.478 458.884 461.389 458.13 462.385 457.348C463.381 456.568 464.326 455.87 465.219 455.257C466.111 454.643 466.677 454.336 466.916 454.336C467.203 454.264 467.729 454.707 468.495 455.663C469.26 456.619 469.67 457.348 469.726 457.85C469.75 458.089 469.331 458.617 468.47 459.434C467.61 460.251 466.661 461.09 465.625 461.95C466.661 462.819 467.61 463.66 468.47 464.472C469.331 465.285 469.75 465.807 469.726 466.038C469.67 466.548 469.26 467.281 468.495 468.238C467.729 469.194 467.203 469.636 466.916 469.564Z" fill="#6200EE"/>
</g>
<g opacity="0.27">
<path opacity="0.27" d="M474.162 471.275C473.876 471.347 473.276 471.19 472.363 470.803C471.45 470.417 470.791 470.001 470.385 469.554C470.185 469.339 470.402 468.481 471.036 466.978C471.67 465.476 472.443 463.813 473.355 461.988C474.268 460.163 475.18 458.426 476.093 456.776C477.006 455.127 477.637 454.047 477.988 453.537C478.235 453.202 478.636 453.075 479.19 453.155C479.744 453.234 480.29 453.418 480.828 453.705C481.366 453.991 481.816 454.334 482.179 454.732C482.541 455.131 482.663 455.478 482.543 455.772C482.089 456.888 481.449 458.298 480.624 460.004C479.799 461.709 478.955 463.374 478.09 465C477.225 466.626 476.422 468.046 475.681 469.261C474.94 470.477 474.433 471.148 474.162 471.275Z" fill="#6200EE"/>
</g>
<g opacity="0.27">
<path opacity="0.27" d="M486.051 469.564C485.756 469.636 485.226 469.194 484.461 468.238C483.696 467.281 483.289 466.548 483.241 466.038C483.225 465.807 483.644 465.285 484.497 464.472C485.349 463.66 486.298 462.819 487.342 461.95C486.298 461.09 485.349 460.251 484.497 459.434C483.644 458.617 483.225 458.089 483.241 457.85C483.289 457.348 483.696 456.619 484.461 455.663C485.226 454.707 485.756 454.264 486.051 454.336C486.282 454.336 486.844 454.643 487.737 455.257C488.629 455.87 489.574 456.568 490.57 457.348C491.566 458.13 492.477 458.884 493.302 459.614C494.127 460.343 494.595 460.819 494.707 461.042C494.795 461.233 494.851 461.546 494.874 461.98C494.898 462.414 494.822 462.739 494.647 462.955C494.161 463.536 493.475 464.208 492.591 464.968C491.706 465.73 490.813 466.451 489.913 467.132C489.012 467.813 488.191 468.391 487.45 468.865C486.708 469.339 486.242 469.573 486.051 469.564Z" fill="#6200EE"/>
</g>
</g>
<g opacity="0.07">
<g opacity="0.07">
<path opacity="0.07" d="M508.753 16.4325C508.554 16.4408 508.083 16.2074 507.342 15.7332C506.601 15.2595 505.78 14.6813 504.879 14C503.978 13.319 503.086 12.5978 502.201 11.8365C501.316 11.0757 500.635 10.4043 500.157 9.82283C499.989 9.60734 499.914 9.28276 499.93 8.84857C499.945 8.41405 500.001 8.10135 500.097 7.91024C500.2 7.68737 500.665 7.21093 501.49 6.482C502.315 5.75253 503.225 4.99782 504.222 4.21649C505.218 3.436 506.162 2.73841 507.055 2.12508C507.948 1.51122 508.514 1.2045 508.753 1.2045C509.04 1.13263 509.566 1.57496 510.331 2.53125C511.096 3.48755 511.507 4.21649 511.562 4.71859C511.586 4.95772 511.168 5.48559 510.307 6.30265C509.446 7.11938 508.498 7.95783 507.462 8.81852C508.498 9.68712 509.446 10.5278 510.307 11.3406C511.168 12.1533 511.586 12.6755 511.562 12.9063C511.507 13.4167 511.096 14.1496 510.331 15.1059C509.566 16.0622 509.04 16.5045 508.753 16.4325Z" fill="#6200EE"/>
</g>
<g opacity="0.07">
<path opacity="0.07" d="M515.999 18.1436C515.712 18.2156 515.112 18.0582 514.2 17.6716C513.287 17.2851 512.627 16.8689 512.221 16.4226C512.022 16.2075 512.239 15.349 512.872 13.8465C513.506 12.3445 514.279 10.6811 515.192 8.85615C516.104 7.03179 517.017 5.29416 517.93 3.64466C518.842 1.99515 519.474 0.915439 519.825 0.405422C520.072 0.0709003 520.472 -0.0565772 521.026 0.0228824C521.58 0.10277 522.126 0.285965 522.664 0.573003C523.202 0.859614 523.652 1.20248 524.015 1.60074C524.378 1.99953 524.499 2.34592 524.38 2.64088C523.926 3.7563 523.286 5.16679 522.461 6.87212C521.636 8.57746 520.791 10.2426 519.926 11.8686C519.061 13.494 518.259 14.9144 517.517 16.1294C516.776 17.3449 516.27 18.0162 515.999 18.1436Z" fill="#6200EE"/>
</g>
<g opacity="0.07">
<path opacity="0.07" d="M527.887 16.4325C527.592 16.5045 527.062 16.0622 526.297 15.1059C525.532 14.1496 525.125 13.4167 525.077 12.9063C525.061 12.6755 525.48 12.1533 526.333 11.3406C527.185 10.5278 528.134 9.68712 529.178 8.81852C528.134 7.95783 527.185 7.11938 526.333 6.30265C525.48 5.48559 525.061 4.95772 525.077 4.71859C525.125 4.21649 525.532 3.48755 526.297 2.53125C527.062 1.57496 527.592 1.13263 527.887 1.2045C528.118 1.2045 528.68 1.51122 529.573 2.12508C530.465 2.73841 531.41 3.436 532.406 4.21649C533.402 4.99782 534.313 5.75253 535.138 6.482C535.963 7.21093 536.431 7.68737 536.543 7.91024C536.631 8.10135 536.686 8.41405 536.71 8.84857C536.734 9.28276 536.658 9.60734 536.483 9.82283C535.997 10.4043 535.311 11.0757 534.427 11.8365C533.542 12.5978 532.649 13.319 531.749 14C530.848 14.6813 530.027 15.2595 529.286 15.7332C528.545 16.2074 528.078 16.4408 527.887 16.4325Z" fill="#6200EE"/>
</g>
</g>
<g opacity="0.17">
<g opacity="0.17">
<path opacity="0.17" d="M514.847 330.468L443.753 346.238L444.402 330.315L514.847 330.468Z" fill="black"/>
</g>
</g>
<path d="M738.695 520H8.97953C7.52583 520 6.34595 518.821 6.34595 517.367C6.34595 515.913 7.52583 514.734 8.97953 514.734H738.695C740.15 514.734 741.329 515.913 741.329 517.367C741.329 518.821 740.15 520 738.695 520Z" fill="#6200EE"/>
</svg>
